#!OML:ASF H:\ManfredETheater\Project 1\Capture day 1\Session 1\subject.ASF
:FULLY-SPECIFIED
:DEGREES
346
root 0.871057 16.128 -45.3868 -150.777 3.36087 -181.228
lowerback 17.6028 0.0742082 0.705257
upperback -0.465992 0.525915 1.51124
thorax -10.4356 0.309947 1.10212
lowerneck -18.6014 -0.832086 -2.05708
upperneck -4.46396 0.44873 -2.57347
head 1.72963 0.629745 -0.429248
rclavicle -3.97569e-015 -1.98785e-015
rhumerus -33.5307 12.681 -91.7954
rradius 105.647
rwrist -13.5523
rhand -26.839 5.59291
rfingers 7.12502
rthumb -0.26456 -24.3867
lclavicle -3.97569e-015 -1.98785e-015
lhumerus -67.9133 -9.93773 93.6924
lradius 89.2902
lwrist 7.37727
lhand -26.9275 -10.1215
lfingers 7.12502
lthumb -0.35003 19.858
rfemur -28.079 -4.40029 25.7738
rtibia 55.1246
rfoot -25.6641 -18.1998
rtoes -50.7139
lfemur -56.6748 6.78208 -21.8313
ltibia 102.817
lfoot -4.18786 -2.23032
ltoes 5.98252
347
root 0.901847 16.1492 -45.8187 -150.573 3.21523 -181.031
lowerback 17.0132 0.326188 0.986173
upperback -0.610444 0.87406 1.32925
thorax -10.2576 0.447691 0.656225
lowerneck -18.5001 -1.11172 -2.13258
upperneck -4.23175 0.0644571 -2.37232
head 1.78993 0.430206 -0.378228
rclavicle 3.18055e-015 1.59028e-014
rhumerus -32.817 13.9167 -91.2262
rradius 110.121
rwrist -13.6842
rhand -26.5597 5.95289
rfingers 7.12502
rthumb 0.0051791 -24.0269
lclavicle 3.18055e-015 1.59028e-014
lhumerus -70.9765 -11.1862 94.2296
lradius 92.4726
lwrist 8.74997
lhand -26.1205 -10.4523
lfingers 7.12502
lthumb 0.429317 19.527
rfemur -25.353 -4.28661 25.7974
rtibia 52.2976
rfoot -24.7208 -17.3918
rtoes -51.1083
lfemur -60.1574 7.54128 -22.0434
ltibia 103.816
lfoot -5.88975 -3.19037
ltoes 3.83736
348
root 0.934483 16.175 -46.2632 -150.373 2.9369 -180.889
lowerback 16.3834 0.570224 1.24799
upperback -0.77443 1.20811 1.1694
thorax -10.0721 0.581839 0.255816
lowerneck -18.3829 -1.41371 -2.24274
upperneck -3.95941 -0.346685 -2.18095
head 1.86249 0.215119 -0.326466
rclavicle -1.19271e-015 -1.66979e-014
rhumerus -32.236 15.0175 -90.3831
rradius 114.496
rwrist -13.7167
rhand -26.27 6.4897
rfingers 7.12502
rthumb 0.284927 -23.4899
lclavicle -1.19271e-015 -1.66979e-014
lhumerus -73.9132 -12.2881 94.7603
lradius 95.5157
lwrist 10.1441
lhand -25.2083 -10.7837
lfingers 7.12502
lthumb 1.31039 19.192
rfemur -22.5779 -4.15093 25.8213
rtibia 49.3348
rfoot -23.4017 -16.2895
rtoes -51.4349
lfemur -63.5226 8.03432 -22.3371
ltibia 104.312
lfoot -7.44353 -4.01999
ltoes 1.52856
349
root 0.968888 16.2071 -46.7205 -150.207 2.52457 -180.795
lowerback 15.7803 0.798736 1.47565
upperback -0.964299 1.5185 1.04079
thorax -9.92605 0.708632 -0.0797218
lowerneck -18.2536 -1.7214 -2.37775
upperneck -3.63714 -0.76616 -1.99329
head 1.9516 -0.00709529 -0.27252
rclavicle -3.53837e-014 -4.53229e-014
rhumerus -31.8135 15.9633 -89.3287
rradius 118.691
rwrist -13.5705
rhand -25.9546 7.24226
rfingers 7.12502
rthumb 0.589627 -22.7367
lclavicle -3.53837e-014 -4.53229e-014
lhumerus -76.7088 -13.192 95.2463
lradius 98.3488
lwrist 11.4017
lhand -24.2161 -11.0685
lfingers 7.12502
lthumb 2.26866 18.8992
rfemur -19.7304 -3.96851 25.8557
rtibia 46.2476
rfoot -21.6623 -14.7796
rtoes -51.5882
lfemur -66.6797 8.25477 -22.6698
ltibia 104.293
lfoot -8.78495 -4.81923
ltoes -0.6499
350
root 1.0046 16.2469 -47.1914 -150.113 1.98345 -180.738
lowerback 15.222 0.98833 1.69358
upperback -1.14864 1.7792 0.932623
thorax -9.79615 0.814401 -0.371646
lowerneck -18.1416 -0.852636 -2.88926
upperneck -3.22726 -1.43425 -1.86066
head 2.06694 -1.16493 -0.218173
rclavicle 1.11319e-014 1.03368e-014
rhumerus -31.5141 16.7621 -88.1611
rradius 122.61
rwrist -13.2104
rhand -25.6331 8.22345
rfingers 7.12502
rthumb 0.900138 -21.7544
lclavicle 1.11319e-014 1.03368e-014
lhumerus -79.2875 -13.8585 95.6103
lradius 100.913
lwrist 12.3935
lhand -23.1725 -11.2701
lfingers 7.12502
lthumb 3.27655 18.6845
rfemur -16.7761 -3.71942 25.9108
rtibia 43.0251
rfoot -19.3928 -12.8116
rtoes -51.4974
lfemur -69.5304 8.24306 -23.0059
ltibia 103.756
lfoot -9.94445 -5.65916
ltoes -2.70649
351
root 1.0408 16.2943 -47.6759 -150.138 1.34 -180.702
lowerback 14.7693 1.13493 1.90147
upperback -1.30831 1.9868 0.845027
thorax -9.69812 0.897362 -0.622
lowerneck -18.0536 -1.17954 -2.98688
upperneck -2.85609 -1.7879 -1.65263
head 2.18452 -1.31123 -0.160552
rclavicle -3.97569e-016 7.95139e-015
rhumerus -31.3281 17.4228 -86.9567
rradius 126.176
rwrist -12.6867
rhand -25.3232 9.36344
rfingers 7.12502
rthumb 1.19938 -20.6129
lclavicle -3.97569e-016 7.95139e-015
lhumerus -81.6012 -14.2774 95.8282
lradius 103.165
lwrist 13.0716
lhand -22.1521 -11.4249
lfingers 7.12502
lthumb 4.26189 18.5122
rfemur -13.6695 -3.37818 25.9911
rtibia 39.6418
rfoot -16.3446 -10.4666
rtoes -51.1433
lfemur -71.9704 8.04351 -23.318
ltibia 102.722
lfoot -10.96 -6.59158
ltoes -4.55515
352
root 1.07706 16.3477 -48.1729 -150.278 0.610026 -180.684
lowerback 14.4116 1.23277 2.10363
upperback -1.43901 2.13314 0.772079
thorax -9.62261 0.952769 -0.839416
lowerneck -17.9821 -1.47475 -3.07657
upperneck -2.48301 -2.10455 -1.42508
head 2.30723 -1.43939 -0.0957301
rclavicle -1.47101e-014 -4.6118e-014
rhumerus -31.2149 17.9642 -85.7464
rradius 129.255
rwrist -12.0371
rhand -25.1084 10.5519
rfingers 7.12502
rthumb 1.4069 -19.4232
lclavicle -1.47101e-014 -4.6118e-014
lhumerus -83.6083 -14.4598 95.8868
lradius 105.086
lwrist 13.4214
lhand -21.1826 -11.5227
lfingers 7.12502
lthumb 5.19799 18.3935
rfemur -10.432 -2.91376 26.1001
rtibia 36.0692
rfoot -12.1475 -7.93036
rtoes -50.4852
lfemur -73.9819 7.70089 -23.6036
ltibia 101.236
lfoot -11.9407 -7.64752
ltoes -6.51425
353
root 1.11206 16.4045 -48.6805 -150.534 -0.193116 -180.668
lowerback 14.1405 1.33022 2.34334
upperback -1.52443 2.21006 0.707297
thorax -9.54523 0.939832 -1.04859
lowerneck -17.9361 -1.73958 -3.15183
upperneck -2.13074 -2.39055 -1.17385
head 2.42875 -1.55323 -0.0238067
rclavicle 2.0276e-014 4.69132e-014
rhumerus -31.1454 18.3477 -84.5607
rradius 131.792
rwrist -11.2902
rhand -25.7533 11.5
rfingers 7.12502
rthumb 0.784035 -18.4783
lclavicle 2.0276e-014 4.69132e-014
lhumerus -85.2622 -14.4342 95.7881
lradius 106.685
lwrist 13.4668
lhand -20.3044 -11.5865
lfingers 7.12502
lthumb 6.04589 18.3072
rfemur -7.06949 -2.31197 26.2645
rtibia 32.2966
rfoot -6.61236 -5.58361
rtoes -49.5055
lfemur -75.552 7.26274 -23.86
ltibia 99.3525
lfoot -12.928 -8.83836
ltoes -8.56775
354
root 1.14547 16.4616 -49.1957 -150.869 -1.0624 -180.642
lowerback 13.9237 1.32671 2.61191
upperback -1.56662 2.24301 0.65355
thorax -9.45332 0.942366 -1.25928
lowerneck -17.9253 -1.97422 -3.24563
upperneck -1.80537 -2.64103 -0.864139
head 2.54971 -1.64881 0.0728414
rclavicle 1.03368e-014 1.27222e-014
rhumerus -31.0987 18.5475 -83.4095
rradius 133.751
rwrist -10.5117
rhand -27.6723 12.1129
rfingers 7.12502
rthumb -1.06946 -17.8642
lclavicle 1.03368e-014 1.27222e-014
lhumerus -86.5199 -14.2332 95.5538
lradius 107.97
lwrist 13.2601
lhand -19.5533 -11.6371
lfingers 7.12502
lthumb 6.771 18.2346
rfemur -3.57537 -1.53064 26.53
rtibia 28.2141
rfoot 0.224929 -3.82972
rtoes -48.0653
lfemur -76.7388 6.77088 -24.0955
ltibia 97.1829
lfoot -13.9378 -10.1526
ltoes -10.5465
